<?xml version="1.0" standalone="no"?>
<!DOCTYPE svg PUBLIC "-//W3C//DTD SVG 1.1//EN" "http://www.w3.org/Graphics/SVG/1.1/DTD/svg11.dtd" >
<svg xmlns="http://www.w3.org/2000/svg" xmlns:xlink="http://www.w3.org/1999/xlink" version="1.1">
<metadata>
Created by FontForge 20170924 at Wed Apr 26 09:54:46 2023
 By www
</metadata>
<defs>
<font id="Frogie-Regular" horiz-adv-x="600" >
  <font-face 
    font-family="Frogie"
    font-weight="400"
    font-stretch="normal"
    units-per-em="1000"
    panose-1="0 0 0 0 0 0 0 0 0 0"
    ascent="800"
    descent="-200"
    x-height="664"
    cap-height="726"
    bbox="-124 -290 1166 980"
    underline-thickness="50"
    underline-position="-125"
    unicode-range="U+0020-2202"
  />
    <missing-glyph />
    <glyph glyph-name="space" unicode=" " horiz-adv-x="300" 
 />
    <glyph glyph-name="space" unicode="&#xa0;" horiz-adv-x="300" 
 />
    <glyph glyph-name="A" unicode="A" horiz-adv-x="529" 
d="M295 90l-5 62h-90l-20 -168h-179l128 726h259l91 -751q-102 -5 -148 -5q-27 0 -27 2q1 3 -9 134zM277 321q-10 107 -17 209l-34 -213z" />
    <glyph glyph-name="Aacute" unicode="&#xc1;" horiz-adv-x="529" 
d="M264 903h113l-56 -115h-92zM295 90l-5 62h-90l-20 -168h-179l128 726h259l91 -751q-102 -5 -148 -5q-27 0 -27 2q1 3 -9 134zM277 321q-10 107 -17 209l-34 -213z" />
    <glyph glyph-name="Acircumflex" unicode="&#xc2;" horiz-adv-x="529" 
d="M209 913h108l68 -132h-84l-38 100l-35 -100h-84zM295 90l-5 62h-90l-20 -168h-179l128 726h259l91 -751q-102 -5 -148 -5q-27 0 -27 2q1 3 -9 134zM277 321q-10 107 -17 209l-34 -213z" />
    <glyph glyph-name="Adieresis" unicode="&#xc4;" horiz-adv-x="529" 
d="M315.5 792.5q-14.5 14.5 -14.5 34.5t14.5 34.5t34.5 14.5t34.5 -14.5t14.5 -34.5t-14.5 -34.5t-34.5 -14.5t-34.5 14.5zM145.5 861.5q14.5 14.5 34.5 14.5t34.5 -14.5t14.5 -34.5t-14.5 -34.5t-34.5 -14.5t-34.5 14.5t-14.5 34.5t14.5 34.5zM295 90l-5 62h-90l-20 -168
h-179l128 726h259l91 -751q-102 -5 -148 -5q-27 0 -27 2q1 3 -9 134zM277 321q-10 107 -17 209l-34 -213z" />
    <glyph glyph-name="Agrave" unicode="&#xc0;" horiz-adv-x="529" 
d="M169 896h113l35 -115h-92zM295 90l-5 62h-90l-20 -168h-179l128 726h259l91 -751q-102 -5 -148 -5q-27 0 -27 2q1 3 -9 134zM277 321q-10 107 -17 209l-34 -213z" />
    <glyph glyph-name="Aring" unicode="&#xc5;" horiz-adv-x="529" 
d="M160 872q0 25 12 43.5t29 28.5q32 20 70 20q42 0 71 -25t29 -69t-33 -74.5t-76 -30.5q-26 0 -49 13t-39 40q-14 29 -14 54zM266 824q9 0 15 3q10 4 17 14t7 25q0 20 -11.5 31t-27.5 11q-12 0 -23 -6q-17 -9 -17 -29q0 -12 5 -22q11 -27 35 -27zM295 90l-5 62h-90
l-20 -168h-179l128 726h259l91 -751q-102 -5 -148 -5q-27 0 -27 2q1 3 -9 134zM277 321q-10 107 -17 209l-34 -213z" />
    <glyph glyph-name="Atilde" unicode="&#xc3;" horiz-adv-x="529" 
d="M210 891q14 0 26 -6t28 -17q15 -11 27 -16.5t25 -5.5q28 0 58 34v-85q-23 -24 -50 -24q-12 0 -23.5 4.5t-31.5 14.5q-18 9 -30.5 14t-25.5 5q-31 0 -58 -36v87q28 31 55 31zM295 90l-5 62h-90l-20 -168h-179l128 726h259l91 -751q-102 -5 -148 -5q-27 0 -27 2q1 3 -9 134
zM277 321q-10 107 -17 209l-34 -213z" />
    <glyph glyph-name="AE" unicode="&#xc6;" horiz-adv-x="892" 
d="M295 70l-5 62h-90l-20 -131h-180l150 688h239l33 -279q14 134 56 255h2l372 21l-11 -161h-227q-6 -31 -14 -97l207 12l-10 -161h-196q16 -104 87 -104q45 0 116 45l48 -145q-35 -32 -87 -54t-109 -22q-41 0 -78 11q-81 23 -120 107l21 -178q-102 -5 -148 -5q-27 0 -27 2
q1 3 -9 134zM277 301l-17 209l-34 -213z" />
    <glyph glyph-name="B" unicode="B" horiz-adv-x="518" 
d="M148 737q128 0 194 -43q74 -49 74 -121q0 -75 -78 -170q50 -26 93 -66t56 -95q5 -20 5 -37q0 -64 -58.5 -115.5t-170 -82.5t-264.5 -33l10 751q67 12 139 12zM299 213q0 46 -119 110v-181q119 26 119 71zM249 559q0 44 -69 56v-173q69 75 69 117z" />
    <glyph glyph-name="C" unicode="C" horiz-adv-x="514" 
d="M366.5 13.5q-53.5 -22.5 -105.5 -22.5q-85 0 -151 56t-92 151q-18 77 -18 145q0 107 38 191t102.5 130.5t140.5 46.5q51 0 103 -22.5t100 -68.5q-53 -99 -95 -147q-42 63 -93 63q-33 0 -62.5 -25t-47.5 -67.5t-18 -91.5q0 -8 2 -28q9 -77 38 -110.5t68 -33.5
q24 0 47.5 11.5t34.5 24.5l112 -135q-50 -45 -103.5 -67.5z" />
    <glyph glyph-name="Ccedilla" unicode="&#xc7;" horiz-adv-x="514" 
d="M290 -7l-39 -56q43 2 72.5 -15t29.5 -56q0 -57 -56 -88.5t-136 -38.5l8 77q38 1 69 12t39 32q0 14 -33.5 20.5t-82.5 7.5l40 111q-65 17 -113.5 69t-69.5 130q-18 77 -18 145q0 107 38 191t102.5 130.5t140.5 46.5q51 0 103 -22.5t100 -68.5q-53 -99 -95 -147
q-42 63 -93 63q-33 0 -62.5 -25t-47.5 -67.5t-18 -91.5q0 -8 2 -28q9 -77 38 -110.5t68 -33.5q24 0 47.5 11.5t34.5 24.5l112 -135q-85 -77 -180 -88z" />
    <glyph glyph-name="D" unicode="D" horiz-adv-x="566" 
d="M176 745q112 0 187 -28q73 -28 111 -92.5t38 -151.5q0 -78 -31 -163t-92 -166t-148 -144h-241v730q86 15 176 15zM277.5 313.5q41.5 76.5 41.5 137.5q0 109 -149 133v-433q66 86 107.5 162.5z" />
    <glyph glyph-name="Eth" unicode="&#xd0;" horiz-adv-x="556" 
d="M0 315h-40v143h40v213h73l1 79q43 6 95 6q86 0 163.5 -22.5t118.5 -81.5q65 -92 65 -195t-61.5 -214t-174.5 -233h-110v-40h-170v345zM276 294.5q43 82.5 43 148.5q0 117 -149 141v-126h54v-143h-54v-186q63 83 106 165.5z" />
    <glyph glyph-name="E" unicode="E" horiz-adv-x="499" 
d="M34 100.5q-38 93.5 -38 231.5q0 98 17.5 202.5t46.5 188.5l1 -1v1l358 20l-11 -155h-218q-5 -28 -12 -120l-3 -31l199 12l-10 -154h-189q7 -71 36.5 -109t77.5 -38q50 0 113 41l47 -140q-43 -31 -100.5 -52.5t-115.5 -21.5q-43 0 -79 12q-82 20 -120 113.5z" />
    <glyph glyph-name="Eacute" unicode="&#xc9;" horiz-adv-x="499" 
d="M249 903h113l-56 -115h-92zM34 100.5q-38 93.5 -38 231.5q0 98 17.5 202.5t46.5 188.5l1 -1v1l358 20l-11 -155h-218q-5 -28 -12 -120l-3 -31l199 12l-10 -154h-189q7 -71 36.5 -109t77.5 -38q50 0 113 41l47 -140q-43 -31 -100.5 -52.5t-115.5 -21.5q-43 0 -79 12
q-82 20 -120 113.5z" />
    <glyph glyph-name="Ecircumflex" unicode="&#xca;" horiz-adv-x="499" 
d="M194 913h108l68 -132h-84l-38 100l-35 -100h-84zM34 100.5q-38 93.5 -38 231.5q0 98 17.5 202.5t46.5 188.5l1 -1v1l358 20l-11 -155h-218q-5 -28 -12 -120l-3 -31l199 12l-10 -154h-189q7 -71 36.5 -109t77.5 -38q50 0 113 41l47 -140q-43 -31 -100.5 -52.5
t-115.5 -21.5q-43 0 -79 12q-82 20 -120 113.5z" />
    <glyph glyph-name="Edieresis" unicode="&#xcb;" horiz-adv-x="499" 
d="M300.5 792.5q-14.5 14.5 -14.5 34.5t14.5 34.5t34.5 14.5t34.5 -14.5t14.5 -34.5t-14.5 -34.5t-34.5 -14.5t-34.5 14.5zM130.5 861.5q14.5 14.5 34.5 14.5t34.5 -14.5t14.5 -34.5t-14.5 -34.5t-34.5 -14.5t-34.5 14.5t-14.5 34.5t14.5 34.5zM34 100.5q-38 93.5 -38 231.5
q0 98 17.5 202.5t46.5 188.5l1 -1v1l358 20l-11 -155h-218q-5 -28 -12 -120l-3 -31l199 12l-10 -154h-189q7 -71 36.5 -109t77.5 -38q50 0 113 41l47 -140q-43 -31 -100.5 -52.5t-115.5 -21.5q-43 0 -79 12q-82 20 -120 113.5z" />
    <glyph glyph-name="Egrave" unicode="&#xc8;" horiz-adv-x="499" 
d="M154 896h113l35 -115h-92zM34 100.5q-38 93.5 -38 231.5q0 98 17.5 202.5t46.5 188.5l1 -1v1l358 20l-11 -155h-218q-5 -28 -12 -120l-3 -31l199 12l-10 -154h-189q7 -71 36.5 -109t77.5 -38q50 0 113 41l47 -140q-43 -31 -100.5 -52.5t-115.5 -21.5q-43 0 -79 12
q-82 20 -120 113.5z" />
    <glyph glyph-name="F" unicode="F" horiz-adv-x="432" 
d="M0 713l402 31l-7 -161l-227 -6l2 -152l195 17l-6 -161l-189 -5l10 -289l-178 -5z" />
    <glyph glyph-name="G" unicode="G" horiz-adv-x="657" 
d="M295 -13q-63 0 -120.5 25.5t-101 77.5t-62.5 128q-12 65 -12 124q0 114 41 202.5t112.5 137.5t160.5 49q115 0 234 -85l-84 -146q-62 70 -127 70q-45 0 -83 -31t-60 -80t-22 -99q0 -76 18.5 -125.5t48 -73t64.5 -23.5q32 0 61.5 18.5t49.5 51.5t23 75h-126q3 7 12 133
h279q0 -92 -12 -167t-57.5 -142.5t-135.5 -101.5q-48 -18 -101 -18z" />
    <glyph glyph-name="H" unicode="H" horiz-adv-x="587" 
d="M350 299l-167 -10l1 -244l-184 -7l11 688h172v-266l169 -2l4 242h171v-703h-182z" />
    <glyph glyph-name="I" unicode="I" horiz-adv-x="283" 
d="M62 726h171v-726h-182z" />
    <glyph glyph-name="Iacute" unicode="&#xcd;" horiz-adv-x="283" 
d="M141 903h113l-56 -115h-92zM62 726h171v-726h-182z" />
    <glyph glyph-name="Icircumflex" unicode="&#xce;" horiz-adv-x="283" 
d="M86 913h108l68 -132h-84l-38 100l-35 -100h-84zM62 726h171v-726h-182z" />
    <glyph glyph-name="Idieresis" unicode="&#xcf;" horiz-adv-x="283" 
d="M192.5 792.5q-14.5 14.5 -14.5 34.5t14.5 34.5t34.5 14.5t34.5 -14.5t14.5 -34.5t-14.5 -34.5t-34.5 -14.5t-34.5 14.5zM22.5 861.5q14.5 14.5 34.5 14.5t34.5 -14.5t14.5 -34.5t-14.5 -34.5t-34.5 -14.5t-34.5 14.5t-14.5 34.5t14.5 34.5zM62 726h171v-726h-182z" />
    <glyph glyph-name="Igrave" unicode="&#xcc;" horiz-adv-x="283" 
d="M46 896h113l35 -115h-92zM62 726h171v-726h-182z" />
    <glyph glyph-name="J" unicode="J" horiz-adv-x="529" 
d="M206 0q-60 0 -114.5 25t-91.5 61l58 152q84 -61 139 -61q103 0 103 212q0 93 -22 249q-8 51 -8 66l176 18q14 -70 23.5 -156.5t9.5 -167.5q0 -125 -27 -219.5t-93 -133.5q-75 -45 -153 -45z" />
    <glyph glyph-name="K" unicode="K" horiz-adv-x="568" 
d="M8 726h172l-15 -236l147 210l188 -19q-241 -298 -235 -300l253 -220l-122 -130l-224 186v-217h-172z" />
    <glyph glyph-name="L" unicode="L" horiz-adv-x="467" 
d="M35 112q-42 102 -42 252q0 86 12.5 178.5t34.5 177.5l182 -2q-15 -54 -36 -157.5t-21 -198.5q0 -85 23.5 -135.5t78.5 -50.5q47 0 107 35l61 -155q-36 -31 -89 -52.5t-112 -21.5q-30 0 -67 8q-90 20 -132 122z" />
    <glyph glyph-name="M" unicode="M" horiz-adv-x="654" 
d="M604 -1l-168 2l5 361l-85 -267h-110l-81 227l-6 -320l-162 -2l3 689h181l121 -367l120 353l176 15z" />
    <glyph glyph-name="N" unicode="N" horiz-adv-x="581" 
d="M361 13l-192 324v-311h-169l11 657h152l210 -405l-7 371l165 13v-653z" />
    <glyph glyph-name="Ntilde" unicode="&#xd1;" horiz-adv-x="581" 
d="M236 865q14 0 26 -6t28 -17q15 -11 27 -16.5t25 -5.5q28 0 58 34v-85q-23 -24 -50 -24q-12 0 -23.5 4.5t-31.5 14.5q-18 9 -30.5 14t-25.5 5q-31 0 -58 -36v87q28 31 55 31zM361 13l-192 324v-311h-169l11 657h152l210 -405l-7 371l165 13v-653z" />
    <glyph glyph-name="O" unicode="O" horiz-adv-x="601" 
d="M296 -2q-29 -7 -58 -7q-71 0 -131.5 48.5t-93.5 171.5q-13 66 -13 125q0 114 43.5 195t106.5 121q74 47 152 47q68 0 125.5 -35t91.5 -102.5t34 -161.5q0 -145 -60 -243t-147 -142q-21 -10 -50 -17zM210 220q25 -23 53 -23q15 0 28 5q31 14 55 51.5t30 95.5q1 9 1 25
q0 59 -28 94t-67 35q-25 0 -47 -13q-26 -16 -44.5 -53t-18.5 -91q0 -18 3 -41q10 -62 35 -85z" />
    <glyph glyph-name="Oacute" unicode="&#xd3;" horiz-adv-x="601" 
d="M300 884h113l-56 -115h-92zM296 -2q-29 -7 -58 -7q-71 0 -131.5 48.5t-93.5 171.5q-13 66 -13 125q0 114 43.5 195t106.5 121q74 47 152 47q68 0 125.5 -35t91.5 -102.5t34 -161.5q0 -145 -60 -243t-147 -142q-21 -10 -50 -17zM210 220q25 -23 53 -23q15 0 28 5
q31 14 55 51.5t30 95.5q1 9 1 25q0 59 -28 94t-67 35q-25 0 -47 -13q-26 -16 -44.5 -53t-18.5 -91q0 -18 3 -41q10 -62 35 -85z" />
    <glyph glyph-name="Ocircumflex" unicode="&#xd4;" horiz-adv-x="601" 
d="M245 894h108l68 -132h-84l-38 100l-35 -100h-84zM296 -2q-29 -7 -58 -7q-71 0 -131.5 48.5t-93.5 171.5q-13 66 -13 125q0 114 43.5 195t106.5 121q74 47 152 47q68 0 125.5 -35t91.5 -102.5t34 -161.5q0 -145 -60 -243t-147 -142q-21 -10 -50 -17zM210 220
q25 -23 53 -23q15 0 28 5q31 14 55 51.5t30 95.5q1 9 1 25q0 59 -28 94t-67 35q-25 0 -47 -13q-26 -16 -44.5 -53t-18.5 -91q0 -18 3 -41q10 -62 35 -85z" />
    <glyph glyph-name="Odieresis" unicode="&#xd6;" horiz-adv-x="601" 
d="M351.5 773.5q-14.5 14.5 -14.5 34.5t14.5 34.5t34.5 14.5t34.5 -14.5t14.5 -34.5t-14.5 -34.5t-34.5 -14.5t-34.5 14.5zM181.5 842.5q14.5 14.5 34.5 14.5t34.5 -14.5t14.5 -34.5t-14.5 -34.5t-34.5 -14.5t-34.5 14.5t-14.5 34.5t14.5 34.5zM296 -2q-29 -7 -58 -7
q-71 0 -131.5 48.5t-93.5 171.5q-13 66 -13 125q0 114 43.5 195t106.5 121q74 47 152 47q68 0 125.5 -35t91.5 -102.5t34 -161.5q0 -145 -60 -243t-147 -142q-21 -10 -50 -17zM210 220q25 -23 53 -23q15 0 28 5q31 14 55 51.5t30 95.5q1 9 1 25q0 59 -28 94t-67 35
q-25 0 -47 -13q-26 -16 -44.5 -53t-18.5 -91q0 -18 3 -41q10 -62 35 -85z" />
    <glyph glyph-name="Ograve" unicode="&#xd2;" horiz-adv-x="601" 
d="M205 877h113l35 -115h-92zM296 -2q-29 -7 -58 -7q-71 0 -131.5 48.5t-93.5 171.5q-13 66 -13 125q0 114 43.5 195t106.5 121q74 47 152 47q68 0 125.5 -35t91.5 -102.5t34 -161.5q0 -145 -60 -243t-147 -142q-21 -10 -50 -17zM210 220q25 -23 53 -23q15 0 28 5
q31 14 55 51.5t30 95.5q1 9 1 25q0 59 -28 94t-67 35q-25 0 -47 -13q-26 -16 -44.5 -53t-18.5 -91q0 -18 3 -41q10 -62 35 -85z" />
    <glyph glyph-name="Oslash" unicode="&#xd8;" 
d="M13 211q-13 66 -13 125q0 114 43.5 195t106.5 121q74 47 152 47q44 0 83 -15l38 88h57l-48 -111q55 -37 88 -103.5t33 -156.5q0 -145 -60 -243.5t-147 -142.5q-21 -10 -50 -17t-59 -7q-46 0 -87 19l-35 -80h-57l48 110q-63 58 -93 171zM194 243l111 257q-16 4 -24 4
q-23 0 -46 -14q-26 -16 -44.5 -53t-18.5 -91q0 -18 3 -41q5 -35 19 -62zM263 197q15 0 28 5q31 14 55 51.5t30 95.5q2 18 2 27q0 57 -29 93l-116 -266q13 -6 30 -6z" />
    <glyph glyph-name="Otilde" unicode="&#xd5;" horiz-adv-x="601" 
d="M246 872q14 0 26 -6t28 -17q15 -11 27 -16.5t25 -5.5q28 0 58 34v-85q-23 -24 -50 -24q-12 0 -23.5 4.5t-31.5 14.5q-18 9 -30.5 14t-25.5 5q-31 0 -58 -36v87q28 31 55 31zM296 -2q-29 -7 -58 -7q-71 0 -131.5 48.5t-93.5 171.5q-13 66 -13 125q0 114 43.5 195
t106.5 121q74 47 152 47q68 0 125.5 -35t91.5 -102.5t34 -161.5q0 -145 -60 -243t-147 -142q-21 -10 -50 -17zM210 220q25 -23 53 -23q15 0 28 5q31 14 55 51.5t30 95.5q1 9 1 25q0 59 -28 94t-67 35q-25 0 -47 -13q-26 -16 -44.5 -53t-18.5 -91q0 -18 3 -41q10 -62 35 -85z
" />
    <glyph glyph-name="OE" unicode="&#x152;" horiz-adv-x="961" 
d="M558 80.5q-36 43.5 -53 108.5q-30 -60 -73.5 -102t-85.5 -63q-21 -10 -50 -17t-58 -7q-71 0 -131.5 48.5t-93.5 171.5q-13 66 -13 125q0 114 43.5 195t106.5 121q72 47 152 47q67 0 124.5 -35.5t90.5 -100.5q15 60 31 104h1l372 21l-11 -161h-227q-9 -57 -13 -97l207 13
l-10 -161h-197q17 -104 88 -104q47 0 115 44l48 -144q-36 -32 -87.5 -54.5t-109.5 -22.5q-39 0 -76 11q-54 16 -90 59.5zM210 229q25 -23 53 -23q15 0 28 5q31 14 55 51.5t30 95.5q1 9 1 25q0 59 -28 94t-67 35q-25 0 -47 -13q-26 -16 -44.5 -53t-18.5 -91q0 -18 3 -41
q10 -62 35 -85z" />
    <glyph glyph-name="P" unicode="P" horiz-adv-x="547" 
d="M119 750q86 0 164 -13.5t124 -47.5q43 -26 66.5 -70t23.5 -96q0 -63 -34.5 -126.5t-105.5 -116.5t-177 -83v-197h-182l11 745q50 5 110 5zM234 387q33 26 59.5 59.5t26.5 62.5q0 64 -140 84v-244q21 12 54 38z" />
    <glyph glyph-name="Thorn" unicode="&#xde;" horiz-adv-x="537" 
d="M-2 -48l11 640v193h171v-135q148 -2 227 -61q43 -26 66.5 -70t23.5 -96q0 -63 -34.5 -126.5t-105.5 -116.5t-177 -83v-197zM234 287q33 26 59.5 59.5t26.5 62.5q0 64 -140 84v-244q21 12 54 38z" />
    <glyph glyph-name="Q" unicode="Q" horiz-adv-x="662" 
d="M357.5 39.5q-57.5 -24.5 -115.5 -24.5q-74 0 -133 49.5t-90 165.5q-19 69 -19 131q0 106 46 192t112 138q86 59 169 59q75 0 135.5 -45t94.5 -120.5t34 -162.5q0 -99 -43 -185l84 -102l-114 -110l-65 68q-38 -29 -95.5 -53.5zM177 461q-24 -53 -24 -107q0 -66 33 -112.5
t85 -46.5q31 0 65 19l-56 58l95 120l52 -57q7 36 7 73q0 51 -14.5 90.5t-40.5 62t-58 22.5q-34 0 -72 -27q-48 -42 -72 -95z" />
    <glyph glyph-name="R" unicode="R" horiz-adv-x="528" 
d="M118 713q86 0 159 -14t105 -49q46 -49 46 -109q0 -52 -36 -115t-109 -142l205 -96l-92 -147l-221 136v-177h-175l9 708q50 5 109 5zM228 426.5q21 40.5 21 76.5q0 65 -74 88v-240q32 35 53 75.5z" />
    <glyph glyph-name="S" unicode="S" horiz-adv-x="571" 
d="M373.5 12q-51.5 -16 -115.5 -16q-83 0 -163 25t-126 68q65 78 111 139q33 -15 97.5 -38t102.5 -23q33 0 33 21q0 8 -4 16q-9 22 -34 44t-72 55q-53 38 -88 67.5t-59.5 68t-24.5 83.5q0 34 14 66q26 57 79.5 98.5t130.5 41.5q121 0 273 -114l-57 -143q-51 39 -103.5 66
t-87.5 27q-17 0 -30 -8q-28 -17 -28 -39t26 -46t83 -66t93 -72.5t62 -69.5t26 -81q0 -60 -57 -121q-30 -33 -81.5 -49z" />
    <glyph glyph-name="Scaron" unicode="&#x160;" horiz-adv-x="571" 
d="M166 921h84l38 -100l35 100h84l-65 -132h-108zM373.5 12q-51.5 -16 -115.5 -16q-83 0 -163 25t-126 68q65 78 111 139q33 -15 97.5 -38t102.5 -23q33 0 33 21q0 8 -4 16q-9 22 -34 44t-72 55q-53 38 -88 67.5t-59.5 68t-24.5 83.5q0 34 14 66q26 57 79.5 98.5t130.5 41.5
q121 0 273 -114l-57 -143q-51 39 -103.5 66t-87.5 27q-17 0 -30 -8q-28 -17 -28 -39t26 -46t83 -66t93 -72.5t62 -69.5t26 -81q0 -60 -57 -121q-30 -33 -81.5 -49z" />
    <glyph glyph-name="T" unicode="T" horiz-adv-x="562" 
d="M150 529h-146l-11 156l519 22l-13 -179l-174 1v-528h-182z" />
    <glyph glyph-name="U" unicode="U" horiz-adv-x="585" 
d="M98 47.5q-58 47.5 -78.5 123.5t-20.5 180q0 53 6 153q5 82 5 136h188q2 0 1 -19t-3 -45q-9 -108 -9 -185q0 -219 74 -219q58 0 80 100.5t22 240.5q0 80 -5 151h170q1 -12 4 -55t3 -98q0 -203 -58 -358t-216 -153q-105 0 -163 47.5z" />
    <glyph glyph-name="Uacute" unicode="&#xda;" horiz-adv-x="585" 
d="M266 868h113l-56 -115h-92zM98 47.5q-58 47.5 -78.5 123.5t-20.5 180q0 53 6 153q5 82 5 136h188q2 0 1 -19t-3 -45q-9 -108 -9 -185q0 -219 74 -219q58 0 80 100.5t22 240.5q0 80 -5 151h170q1 -12 4 -55t3 -98q0 -203 -58 -358t-216 -153q-105 0 -163 47.5z" />
    <glyph glyph-name="Ucircumflex" unicode="&#xdb;" horiz-adv-x="585" 
d="M211 878h108l68 -132h-84l-38 100l-35 -100h-84zM98 47.5q-58 47.5 -78.5 123.5t-20.5 180q0 53 6 153q5 82 5 136h188q2 0 1 -19t-3 -45q-9 -108 -9 -185q0 -219 74 -219q58 0 80 100.5t22 240.5q0 80 -5 151h170q1 -12 4 -55t3 -98q0 -203 -58 -358t-216 -153
q-105 0 -163 47.5z" />
    <glyph glyph-name="Udieresis" unicode="&#xdc;" horiz-adv-x="585" 
d="M317.5 757.5q-14.5 14.5 -14.5 34.5t14.5 34.5t34.5 14.5t34.5 -14.5t14.5 -34.5t-14.5 -34.5t-34.5 -14.5t-34.5 14.5zM147.5 826.5q14.5 14.5 34.5 14.5t34.5 -14.5t14.5 -34.5t-14.5 -34.5t-34.5 -14.5t-34.5 14.5t-14.5 34.5t14.5 34.5zM98 47.5
q-58 47.5 -78.5 123.5t-20.5 180q0 53 6 153q5 82 5 136h188q2 0 1 -19t-3 -45q-9 -108 -9 -185q0 -219 74 -219q58 0 80 100.5t22 240.5q0 80 -5 151h170q1 -12 4 -55t3 -98q0 -203 -58 -358t-216 -153q-105 0 -163 47.5z" />
    <glyph glyph-name="Ugrave" unicode="&#xd9;" horiz-adv-x="585" 
d="M171 861h113l35 -115h-92zM98 47.5q-58 47.5 -78.5 123.5t-20.5 180q0 53 6 153q5 82 5 136h188q2 0 1 -19t-3 -45q-9 -108 -9 -185q0 -219 74 -219q58 0 80 100.5t22 240.5q0 80 -5 151h170q1 -12 4 -55t3 -98q0 -203 -58 -358t-216 -153q-105 0 -163 47.5z" />
    <glyph glyph-name="V" unicode="V" horiz-adv-x="638" 
d="M-1 677h204l96 -538l106 529h182l-147 -668h-300z" />
    <glyph glyph-name="W" unicode="W" horiz-adv-x="834" 
d="M16 684h169l51 -514l89 402h148l92 -396l65 509h156l-96 -685h-241l-54 252l-48 -252h-248z" />
    <glyph glyph-name="Wdieresis" unicode="&#x1e84;" horiz-adv-x="834" 
d="M475.5 792.5q-14.5 14.5 -14.5 34.5t14.5 34.5t34.5 14.5t34.5 -14.5t14.5 -34.5t-14.5 -34.5t-34.5 -14.5t-34.5 14.5zM305.5 861.5q14.5 14.5 34.5 14.5t34.5 -14.5t14.5 -34.5t-14.5 -34.5t-34.5 -14.5t-34.5 14.5t-14.5 34.5t14.5 34.5zM16 684h169l51 -514l89 402
h148l92 -396l65 509h156l-96 -685h-241l-54 252l-48 -252h-248z" />
    <glyph glyph-name="X" unicode="X" horiz-adv-x="648" 
d="M172 357l-163 343l200 -4l88 -192l103 194h184l-166 -334l180 -332h-200l-97 183l-104 -215h-197z" />
    <glyph glyph-name="Y" unicode="Y" horiz-adv-x="565" 
d="M214 -92q-58 0 -109 25t-85 61l30 152q85 -62 146 -62q97 0 137 148q-61 -25 -122 -25q-32 0 -61 7q-75 20 -113 79t-38 152q0 108 50 255l165 -6q-23 -59 -39.5 -121.5t-16.5 -110.5q0 -95 72 -95q47 0 128 44q1 22 1 66q0 109 -11 210l158 15q9 -94 9 -205
q0 -186 -33 -339.5t-118 -204.5q-75 -45 -150 -45z" />
    <glyph glyph-name="Yacute" unicode="&#xdd;" horiz-adv-x="565" 
d="M282 903h113l-56 -115h-92zM214 -92q-58 0 -109 25t-85 61l30 152q85 -62 146 -62q97 0 137 148q-61 -25 -122 -25q-32 0 -61 7q-75 20 -113 79t-38 152q0 108 50 255l165 -6q-23 -59 -39.5 -121.5t-16.5 -110.5q0 -95 72 -95q47 0 128 44q1 22 1 66q0 109 -11 210
l158 15q9 -94 9 -205q0 -186 -33 -339.5t-118 -204.5q-75 -45 -150 -45z" />
    <glyph glyph-name="Ydieresis" unicode="&#x178;" horiz-adv-x="565" 
d="M333.5 792.5q-14.5 14.5 -14.5 34.5t14.5 34.5t34.5 14.5t34.5 -14.5t14.5 -34.5t-14.5 -34.5t-34.5 -14.5t-34.5 14.5zM163.5 861.5q14.5 14.5 34.5 14.5t34.5 -14.5t14.5 -34.5t-14.5 -34.5t-34.5 -14.5t-34.5 14.5t-14.5 34.5t14.5 34.5zM214 -92q-58 0 -109 25
t-85 61l30 152q85 -62 146 -62q97 0 137 148q-61 -25 -122 -25q-32 0 -61 7q-75 20 -113 79t-38 152q0 108 50 255l165 -6q-23 -59 -39.5 -121.5t-16.5 -110.5q0 -95 72 -95q47 0 128 44q1 22 1 66q0 109 -11 210l158 15q9 -94 9 -205q0 -186 -33 -339.5t-118 -204.5
q-75 -45 -150 -45z" />
    <glyph glyph-name="Z" unicode="Z" horiz-adv-x="581" 
d="M2 173l334 364h-296l-11 164l502 11l-12 -175q-235 -271 -309 -364h301l-9 -174h-500v174z" />
    <glyph glyph-name="Zcaron" unicode="&#x17d;" horiz-adv-x="581" 
d="M171 921h84l38 -100l35 100h84l-65 -132h-108zM2 173l334 364h-296l-11 164l502 11l-12 -175q-235 -271 -309 -364h301l-9 -174h-500v174z" />
    <glyph glyph-name="a" unicode="a" horiz-adv-x="529" 
d="M295 90l-5 62h-90l-21 -152h-179l150 710h238l91 -751q-102 -5 -148 -5q-27 0 -27 2q1 3 -9 134zM277 321q-10 107 -17 209l-34 -213z" />
    <glyph glyph-name="aacute" unicode="&#xe1;" horiz-adv-x="529" 
d="M264 904h113l-56 -115h-92zM295 90l-5 62h-90l-21 -152h-179l150 710h238l91 -751q-102 -5 -148 -5q-27 0 -27 2q1 3 -9 134zM277 321q-10 107 -17 209l-34 -213z" />
    <glyph glyph-name="acircumflex" unicode="&#xe2;" horiz-adv-x="529" 
d="M209 914h108l68 -132h-84l-38 100l-35 -100h-84zM295 90l-5 62h-90l-21 -152h-179l150 710h238l91 -751q-102 -5 -148 -5q-27 0 -27 2q1 3 -9 134zM277 321q-10 107 -17 209l-34 -213z" />
    <glyph glyph-name="adieresis" unicode="&#xe4;" horiz-adv-x="529" 
d="M315.5 793.5q-14.5 14.5 -14.5 34.5t14.5 34.5t34.5 14.5t34.5 -14.5t14.5 -34.5t-14.5 -34.5t-34.5 -14.5t-34.5 14.5zM145.5 862.5q14.5 14.5 34.5 14.5t34.5 -14.5t14.5 -34.5t-14.5 -34.5t-34.5 -14.5t-34.5 14.5t-14.5 34.5t14.5 34.5zM295 90l-5 62h-90l-21 -152
h-179l150 710h238l91 -751q-102 -5 -148 -5q-27 0 -27 2q1 3 -9 134zM277 321q-10 107 -17 209l-34 -213z" />
    <glyph glyph-name="agrave" unicode="&#xe0;" horiz-adv-x="529" 
d="M169 897h113l35 -115h-92zM295 90l-5 62h-90l-21 -152h-179l150 710h238l91 -751q-102 -5 -148 -5q-27 0 -27 2q1 3 -9 134zM277 321q-10 107 -17 209l-34 -213z" />
    <glyph glyph-name="aring" unicode="&#xe5;" horiz-adv-x="529" 
d="M160 873q0 25 12 43.5t29 28.5q32 20 70 20q42 0 71 -25t29 -69t-33 -74.5t-76 -30.5q-26 0 -49 13t-39 40q-14 29 -14 54zM266 825q9 0 15 3q10 4 17 14t7 25q0 20 -11.5 31t-27.5 11q-12 0 -23 -6q-17 -9 -17 -29q0 -12 5 -22q11 -27 35 -27zM295 90l-5 62h-90
l-21 -152h-179l150 710h238l91 -751q-102 -5 -148 -5q-27 0 -27 2q1 3 -9 134zM277 321q-10 107 -17 209l-34 -213z" />
    <glyph glyph-name="atilde" unicode="&#xe3;" horiz-adv-x="529" 
d="M210 892q14 0 26 -6t28 -17q15 -11 27 -16.5t25 -5.5q28 0 58 34v-85q-23 -24 -50 -24q-12 0 -23.5 4.5t-31.5 14.5q-18 9 -30.5 14t-25.5 5q-31 0 -58 -36v87q28 31 55 31zM295 90l-5 62h-90l-21 -152h-179l150 710h238l91 -751q-102 -5 -148 -5q-27 0 -27 2q1 3 -9 134
zM277 321q-10 107 -17 209l-34 -213z" />
    <glyph glyph-name="ae" unicode="&#xe6;" horiz-adv-x="892" 
d="M295 70l-5 62h-90l-20 -131h-180l150 688h239l33 -279q14 134 56 255h2l372 21l-11 -161h-227q-6 -31 -14 -97l207 12l-10 -161h-196q16 -104 87 -104q45 0 116 45l48 -145q-35 -32 -87 -54t-109 -22q-41 0 -78 11q-81 23 -120 107l21 -178q-102 -5 -148 -5q-27 0 -27 2
q1 3 -9 134zM277 301l-17 209l-34 -213z" />
    <glyph glyph-name="b" unicode="b" horiz-adv-x="518" 
d="M162 752q116 0 177 -41q73 -49 73 -123q0 -75 -77 -172q49 -26 92 -67t56 -96q5 -22 5 -37q0 -65 -58 -117.5t-168.5 -84t-262.5 -33.5l10 755q75 16 153 16zM297 223q0 46 -119 112v-183q119 25 119 71zM246 574q0 45 -68 57v-175q68 74 68 118z" />
    <glyph glyph-name="c" unicode="c" horiz-adv-x="514" 
d="M366.5 24.5q-53.5 -21.5 -105.5 -21.5q-85 0 -151 53.5t-92 146.5q-18 74 -18 141q0 104 38 186t102.5 127.5t140.5 45.5q51 0 103 -22t100 -67q-53 -80 -95 -133q-39 50 -85 50q-37 0 -69.5 -29t-50.5 -76t-14 -99q9 -73 37.5 -104t67.5 -31q27 0 55 12.5t43 27.5
l97 -142q-50 -44 -103.5 -65.5z" />
    <glyph glyph-name="ccedilla" unicode="&#xe7;" horiz-adv-x="514" 
d="M312 8l-33 -48q43 2 72.5 -15t29.5 -56q0 -57 -56 -88.5t-136 -38.5l8 77q38 1 69 12t39 32q0 14 -33.5 20.5t-82.5 7.5l34 94q-72 11 -127 63.5t-78 134.5q-18 74 -18 141q0 104 38 186t102.5 127.5t140.5 45.5q51 0 103 -22t100 -67q-53 -80 -95 -133q-39 50 -85 50
q-37 0 -69.5 -29t-50.5 -76t-14 -99q9 -73 37.5 -104t67.5 -31q27 0 55 12.5t43 27.5l97 -142q-77 -66 -158 -82z" />
    <glyph glyph-name="d" unicode="d" horiz-adv-x="546" 
d="M135 739q131 0 215 -33q70 -28 108 -95.5t38 -156.5q0 -118 -65 -240.5t-190 -213.5h-241v730q63 9 135 9zM275 312.5q43 80.5 43 141.5q0 107 -148 112v-415q62 81 105 161.5z" />
    <glyph glyph-name="eth" unicode="&#xf0;" horiz-adv-x="507" 
d="M272 293.5q-25 17.5 -56 17.5t-53 -20t-23 -59q0 -46 24 -71.5t57 -25.5t58 24t25 67q0 7 -2 21q-5 29 -30 46.5zM207 712q88 -9 156 -88l43 24l53 -98l-39 -18q23 -51 35 -107.5t12 -113.5q0 -77 -22.5 -144.5t-68.5 -112.5q-69 -69 -151 -69q-73 0 -123.5 33t-75 86
t-24.5 113q0 55 21.5 104.5t62.5 79.5t97 30q58 0 125 -34q-6 44 -18 76l-47 -22l-33 86l28 16q-23 16 -50 16q-25 0 -46 -12q55 156 65 155z" />
    <glyph glyph-name="e" unicode="e" horiz-adv-x="499" 
d="M35.5 117.5q-37.5 93.5 -37.5 228.5q0 94 16.5 193.5t45.5 183.5l1 -1v1l358 20l-8 -138l-221 -17q-5 -28 -12 -120l-3 -31l200 5v-133l-200 -14q-4 -87 21.5 -129t73.5 -42q56 0 135 52l44 -127q-39 -26 -93 -44t-112 -18q-45 0 -90 13q-81 24 -118.5 117.5z" />
    <glyph glyph-name="eacute" unicode="&#xe9;" horiz-adv-x="499" 
d="M226 934h113l-56 -115h-92zM35.5 117.5q-37.5 93.5 -37.5 228.5q0 94 16.5 193.5t45.5 183.5l1 -1v1l358 20l-8 -138l-221 -17q-5 -28 -12 -120l-3 -31l200 5v-133l-200 -14q-4 -87 21.5 -129t73.5 -42q56 0 135 52l44 -127q-39 -26 -93 -44t-112 -18q-45 0 -90 13
q-81 24 -118.5 117.5z" />
    <glyph glyph-name="ecircumflex" unicode="&#xea;" horiz-adv-x="499" 
d="M171 944h108l68 -132h-84l-38 100l-35 -100h-84zM35.5 117.5q-37.5 93.5 -37.5 228.5q0 94 16.5 193.5t45.5 183.5l1 -1v1l358 20l-8 -138l-221 -17q-5 -28 -12 -120l-3 -31l200 5v-133l-200 -14q-4 -87 21.5 -129t73.5 -42q56 0 135 52l44 -127q-39 -26 -93 -44
t-112 -18q-45 0 -90 13q-81 24 -118.5 117.5z" />
    <glyph glyph-name="edieresis" unicode="&#xeb;" horiz-adv-x="499" 
d="M277.5 823.5q-14.5 14.5 -14.5 34.5t14.5 34.5t34.5 14.5t34.5 -14.5t14.5 -34.5t-14.5 -34.5t-34.5 -14.5t-34.5 14.5zM107.5 892.5q14.5 14.5 34.5 14.5t34.5 -14.5t14.5 -34.5t-14.5 -34.5t-34.5 -14.5t-34.5 14.5t-14.5 34.5t14.5 34.5zM35.5 117.5
q-37.5 93.5 -37.5 228.5q0 94 16.5 193.5t45.5 183.5l1 -1v1l358 20l-8 -138l-221 -17q-5 -28 -12 -120l-3 -31l200 5v-133l-200 -14q-4 -87 21.5 -129t73.5 -42q56 0 135 52l44 -127q-39 -26 -93 -44t-112 -18q-45 0 -90 13q-81 24 -118.5 117.5z" />
    <glyph glyph-name="egrave" unicode="&#xe8;" horiz-adv-x="499" 
d="M131 927h113l35 -115h-92zM35.5 117.5q-37.5 93.5 -37.5 228.5q0 94 16.5 193.5t45.5 183.5l1 -1v1l358 20l-8 -138l-221 -17q-5 -28 -12 -120l-3 -31l200 5v-133l-200 -14q-4 -87 21.5 -129t73.5 -42q56 0 135 52l44 -127q-39 -26 -93 -44t-112 -18q-45 0 -90 13
q-81 24 -118.5 117.5z" />
    <glyph glyph-name="f" unicode="f" horiz-adv-x="422" 
d="M0 713l402 31l-7 -161l-227 -6l2 -152l195 17l-6 -161l-189 -5l10 -289l-178 -5z" />
    <glyph glyph-name="g" unicode="g" horiz-adv-x="657" 
d="M295 -13q-63 0 -120.5 25.5t-101 77.5t-62.5 128q-12 65 -12 124q0 114 41 202.5t112.5 137.5t160.5 49q115 0 234 -85l-84 -146q-62 70 -127 70q-45 0 -83 -31t-60 -80t-22 -99q0 -76 18.5 -125.5t48 -73t64.5 -23.5q32 0 61.5 18.5t49.5 51.5t23 75h-126q3 7 12 133
h279q0 -92 -12 -167t-57.5 -142.5t-135.5 -101.5q-48 -18 -101 -18z" />
    <glyph glyph-name="h" unicode="h" horiz-adv-x="627" 
d="M370 299l-167 -10l1 -244l-184 -7l11 688h172v-266l169 -2l4 242h171v-703h-182z" />
    <glyph glyph-name="i" unicode="i" horiz-adv-x="252" 
d="M31 547h171l8 -547h-190zM42.5 769.5q32.5 32.5 78.5 32.5t79 -32.5t33 -78.5t-32.5 -79t-79.5 -33q-46 0 -78.5 33t-32.5 79t32.5 78.5z" />
    <glyph glyph-name="iacute" unicode="&#xed;" horiz-adv-x="242" 
d="M120 745h113l-56 -115h-92zM31 547h171v-547h-182z" />
    <glyph glyph-name="icircumflex" unicode="&#xee;" horiz-adv-x="242" 
d="M65 755h108l68 -132h-84l-38 100l-35 -100h-84zM31 547h171v-547h-182z" />
    <glyph glyph-name="idieresis" unicode="&#xef;" horiz-adv-x="242" 
d="M171.5 634.5q-14.5 14.5 -14.5 34.5t14.5 34.5t34.5 14.5t34.5 -14.5t14.5 -34.5t-14.5 -34.5t-34.5 -14.5t-34.5 14.5zM1.5 703.5q14.5 14.5 34.5 14.5t34.5 -14.5t14.5 -34.5t-14.5 -34.5t-34.5 -14.5t-34.5 14.5t-14.5 34.5t14.5 34.5zM31 547h171v-547h-182z" />
    <glyph glyph-name="igrave" unicode="&#xec;" horiz-adv-x="242" 
d="M25 738h113l35 -115h-92zM31 547h171v-547h-182z" />
    <glyph glyph-name="j" unicode="j" horiz-adv-x="479" 
d="M176 0q-60 0 -114.5 25t-91.5 61l58 152q84 -61 139 -61q103 0 103 212q0 93 -22 249q-8 51 -8 66l176 18q14 -70 23.5 -156.5t9.5 -167.5q0 -125 -27 -219.5t-93 -133.5q-75 -45 -153 -45z" />
    <glyph glyph-name="k" unicode="k" horiz-adv-x="568" 
d="M8 726h172l-15 -236l147 210l188 -19q-241 -298 -235 -300l253 -220l-122 -130l-224 186v-217h-172z" />
    <glyph glyph-name="l" unicode="l" horiz-adv-x="467" 
d="M35 112q-42 102 -42 252q0 86 12.5 178.5t34.5 177.5l182 -2q-15 -54 -36 -157.5t-21 -198.5q0 -85 23.5 -135.5t78.5 -50.5q47 0 107 35l61 -155q-36 -31 -89 -52.5t-112 -21.5q-30 0 -67 8q-90 20 -132 122z" />
    <glyph glyph-name="uni013C" unicode="&#x13c;" horiz-adv-x="467" 
d="M209 -57h98l-70 -143h-77zM35 112q-42 102 -42 252q0 86 12.5 178.5t34.5 177.5l182 -2q-15 -54 -36 -157.5t-21 -198.5q0 -85 23.5 -135.5t78.5 -50.5q47 0 107 35l61 -155q-36 -31 -89 -52.5t-112 -21.5q-30 0 -67 8q-90 20 -132 122z" />
    <glyph glyph-name="lslash" unicode="&#x142;" horiz-adv-x="475" 
d="M36.5 109q-41.5 99 -43.5 246l-37 -11l-21 131l65 17q12 117 40 228l182 -2q-5 -14 -17.5 -66.5t-22.5 -112.5l68 17l28 -115l-111 -34q-2 -32 -2 -48q0 -183 102 -183q45 0 107 35l61 -155q-36 -31 -89 -52.5t-112 -21.5q-30 0 -67 8q-89 20 -130.5 119z" />
    <glyph glyph-name="m" unicode="m" horiz-adv-x="655" 
d="M605 -1l-168 2l5 361l-85 -267h-110l-81 227l-6 -320l-162 -2l3 689h181l121 -367l120 353l176 15z" />
    <glyph glyph-name="n" unicode="n" horiz-adv-x="631" 
d="M381 13l-192 324v-311h-169l11 657h152l210 -405l-7 371l165 13v-653z" />
    <glyph glyph-name="ntilde" unicode="&#xf1;" horiz-adv-x="631" 
d="M240 865q14 0 26 -6t28 -17q15 -11 27 -16.5t25 -5.5q28 0 58 34v-85q-23 -24 -50 -24q-12 0 -23.5 4.5t-31.5 14.5q-18 9 -30.5 14t-25.5 5q-31 0 -58 -36v87q28 31 55 31zM381 13l-192 324v-311h-169l11 657h152l210 -405l-7 371l165 13v-653z" />
    <glyph glyph-name="o" unicode="o" horiz-adv-x="603" 
d="M296 -2q-29 -7 -58 -7q-71 0 -131.5 48.5t-93.5 171.5q-13 66 -13 125q0 114 43.5 195t106.5 121q74 47 152 47q71 0 129.5 -38t92 -111t28.5 -174q-7 -141 -66.5 -232.5t-139.5 -128.5q-21 -10 -50 -17zM210 220q25 -23 53 -23q15 0 28 5q31 14 55 51.5t30 95.5
q1 9 1 25q0 59 -28 94t-67 35q-25 0 -47 -13q-26 -16 -44.5 -53t-18.5 -91q0 -18 3 -41q10 -62 35 -85z" />
    <glyph glyph-name="oacute" unicode="&#xf3;" horiz-adv-x="603" 
d="M301 873h113l-56 -115h-92zM296 -2q-29 -7 -58 -7q-71 0 -131.5 48.5t-93.5 171.5q-13 66 -13 125q0 114 43.5 195t106.5 121q74 47 152 47q71 0 129.5 -38t92 -111t28.5 -174q-7 -141 -66.5 -232.5t-139.5 -128.5q-21 -10 -50 -17zM210 220q25 -23 53 -23q15 0 28 5
q31 14 55 51.5t30 95.5q1 9 1 25q0 59 -28 94t-67 35q-25 0 -47 -13q-26 -16 -44.5 -53t-18.5 -91q0 -18 3 -41q10 -62 35 -85z" />
    <glyph glyph-name="ocircumflex" unicode="&#xf4;" horiz-adv-x="603" 
d="M246 883h108l68 -132h-84l-38 100l-35 -100h-84zM296 -2q-29 -7 -58 -7q-71 0 -131.5 48.5t-93.5 171.5q-13 66 -13 125q0 114 43.5 195t106.5 121q74 47 152 47q71 0 129.5 -38t92 -111t28.5 -174q-7 -141 -66.5 -232.5t-139.5 -128.5q-21 -10 -50 -17zM210 220
q25 -23 53 -23q15 0 28 5q31 14 55 51.5t30 95.5q1 9 1 25q0 59 -28 94t-67 35q-25 0 -47 -13q-26 -16 -44.5 -53t-18.5 -91q0 -18 3 -41q10 -62 35 -85z" />
    <glyph glyph-name="odieresis" unicode="&#xf6;" horiz-adv-x="603" 
d="M352.5 762.5q-14.5 14.5 -14.5 34.5t14.5 34.5t34.5 14.5t34.5 -14.5t14.5 -34.5t-14.5 -34.5t-34.5 -14.5t-34.5 14.5zM182.5 831.5q14.5 14.5 34.5 14.5t34.5 -14.5t14.5 -34.5t-14.5 -34.5t-34.5 -14.5t-34.5 14.5t-14.5 34.5t14.5 34.5zM296 -2q-29 -7 -58 -7
q-71 0 -131.5 48.5t-93.5 171.5q-13 66 -13 125q0 114 43.5 195t106.5 121q74 47 152 47q71 0 129.5 -38t92 -111t28.5 -174q-7 -141 -66.5 -232.5t-139.5 -128.5q-21 -10 -50 -17zM210 220q25 -23 53 -23q15 0 28 5q31 14 55 51.5t30 95.5q1 9 1 25q0 59 -28 94t-67 35
q-25 0 -47 -13q-26 -16 -44.5 -53t-18.5 -91q0 -18 3 -41q10 -62 35 -85z" />
    <glyph glyph-name="ograve" unicode="&#xf2;" horiz-adv-x="603" 
d="M206 866h113l35 -115h-92zM296 -2q-29 -7 -58 -7q-71 0 -131.5 48.5t-93.5 171.5q-13 66 -13 125q0 114 43.5 195t106.5 121q74 47 152 47q71 0 129.5 -38t92 -111t28.5 -174q-7 -141 -66.5 -232.5t-139.5 -128.5q-21 -10 -50 -17zM210 220q25 -23 53 -23q15 0 28 5
q31 14 55 51.5t30 95.5q1 9 1 25q0 59 -28 94t-67 35q-25 0 -47 -13q-26 -16 -44.5 -53t-18.5 -91q0 -18 3 -41q10 -62 35 -85z" />
    <glyph glyph-name="oslash" unicode="&#xf8;" horiz-adv-x="593" 
d="M13 211q-13 66 -13 125q0 114 43.5 195t106.5 121q74 47 152 47q44 0 83 -15l38 88h57l-48 -111q55 -37 88 -103.5t33 -156.5q0 -145 -60 -243.5t-147 -142.5q-21 -10 -50 -17t-59 -7q-46 0 -87 19l-35 -80h-57l48 110q-63 58 -93 171zM194 243l111 257q-16 4 -24 4
q-23 0 -46 -14q-26 -16 -44.5 -53t-18.5 -91q0 -18 3 -41q5 -35 19 -62zM263 197q15 0 28 5q31 14 55 51.5t30 95.5q2 18 2 27q0 57 -29 93l-116 -266q13 -6 30 -6z" />
    <glyph glyph-name="otilde" unicode="&#xf5;" horiz-adv-x="603" 
d="M247 861q14 0 26 -6t28 -17q15 -11 27 -16.5t25 -5.5q28 0 58 34v-85q-23 -24 -50 -24q-12 0 -23.5 4.5t-31.5 14.5q-18 9 -30.5 14t-25.5 5q-31 0 -58 -36v87q28 31 55 31zM296 -2q-29 -7 -58 -7q-71 0 -131.5 48.5t-93.5 171.5q-13 66 -13 125q0 114 43.5 195
t106.5 121q74 47 152 47q71 0 129.5 -38t92 -111t28.5 -174q-7 -141 -66.5 -232.5t-139.5 -128.5q-21 -10 -50 -17zM210 220q25 -23 53 -23q15 0 28 5q31 14 55 51.5t30 95.5q1 9 1 25q0 59 -28 94t-67 35q-25 0 -47 -13q-26 -16 -44.5 -53t-18.5 -91q0 -18 3 -41
q10 -62 35 -85z" />
    <glyph glyph-name="oe" unicode="&#x153;" horiz-adv-x="961" 
d="M558 80.5q-36 43.5 -53 108.5q-30 -60 -73.5 -102t-85.5 -63q-21 -10 -50 -17t-58 -7q-71 0 -131.5 48.5t-93.5 171.5q-13 66 -13 125q0 114 43.5 195t106.5 121q72 47 152 47q67 0 124.5 -35.5t90.5 -100.5q15 60 31 104h1l372 21l-11 -161h-227q-9 -57 -13 -97l207 13
l-10 -161h-197q17 -104 88 -104q47 0 115 44l48 -144q-36 -32 -87.5 -54.5t-109.5 -22.5q-39 0 -76 11q-54 16 -90 59.5zM210 229q25 -23 53 -23q15 0 28 5q31 14 55 51.5t30 95.5q1 9 1 25q0 59 -28 94t-67 35q-25 0 -47 -13q-26 -16 -44.5 -53t-18.5 -91q0 -18 3 -41
q10 -62 35 -85z" />
    <glyph glyph-name="p" unicode="p" horiz-adv-x="549" 
d="M119 750q86 0 164 -13.5t124 -47.5q43 -26 66.5 -70t23.5 -96q0 -63 -34.5 -126.5t-105.5 -116.5t-177 -83v-197h-182l11 745q50 5 110 5zM234 387q33 26 59.5 59.5t26.5 62.5q0 64 -140 84v-244q21 12 54 38z" />
    <glyph glyph-name="thorn" unicode="&#xfe;" horiz-adv-x="537" 
d="M-2 -94l11 640v193h171v-135q148 -2 227 -61q43 -26 66.5 -70t23.5 -96q0 -63 -34.5 -126.5t-105.5 -116.5t-177 -83v-197zM234 241q33 26 59.5 59.5t26.5 62.5q0 64 -140 84v-244q21 12 54 38z" />
    <glyph glyph-name="q" unicode="q" horiz-adv-x="662" 
d="M372 12q-52 -17 -108 -17q-83 0 -149.5 45.5t-95.5 150.5q-19 80 -19 149q0 116 46 198t112 122q81 48 160 48q77 0 139.5 -44t98 -119t35.5 -162q0 -98 -43 -185l84 -103l-114 -112l-65 69q-29 -23 -81 -40zM183 426.5q-22 -54.5 -22 -109.5q0 -67 30.5 -114t80.5 -47
q30 0 64 19l-56 59l95 122l52 -58q7 35 7 71q0 52 -15.5 94t-42 65.5t-58.5 23.5q-34 0 -69 -29q-44 -42 -66 -96.5z" />
    <glyph glyph-name="r" unicode="r" horiz-adv-x="518" 
d="M118 713q86 0 159 -14t105 -49q46 -49 46 -109q0 -52 -36 -115t-109 -142l205 -96l-92 -147l-221 136v-177h-175l9 708q50 5 109 5zM228 426.5q21 40.5 21 76.5q0 65 -74 88v-240q32 35 53 75.5z" />
    <glyph glyph-name="s" unicode="s" horiz-adv-x="571" 
d="M380 12q-55 -16 -120 -16q-84 0 -164.5 25t-126.5 68q20 24 67 90q34 49 44 60q31 -14 97.5 -37t105.5 -23q35 0 35 22q0 4 -4 16q-9 22 -34 43t-75 54q-54 36 -89 64t-60 65t-25 81q0 28 14 64q25 56 85 98t143 42q130 0 282 -114l-84 -143q-49 33 -99 56t-85 23
q-18 0 -31 -7q-21 -13 -21 -30q0 -20 26 -43t81 -62q58 -40 96.5 -71.5t66 -70.5t27.5 -81q0 -61 -63 -124q-34 -33 -89 -49z" />
    <glyph glyph-name="scaron" unicode="&#x161;" horiz-adv-x="571" 
d="M166 920h84l38 -100l35 100h84l-65 -132h-108zM380 12q-55 -16 -120 -16q-84 0 -164.5 25t-126.5 68q20 24 67 90q34 49 44 60q31 -14 97.5 -37t105.5 -23q35 0 35 22q0 4 -4 16q-9 22 -34 43t-75 54q-54 36 -89 64t-60 65t-25 81q0 28 14 64q25 56 85 98t143 42
q130 0 282 -114l-84 -143q-49 33 -99 56t-85 23q-18 0 -31 -7q-21 -13 -21 -30q0 -20 26 -43t81 -62q58 -40 96.5 -71.5t66 -70.5t27.5 -81q0 -61 -63 -124q-34 -33 -89 -49z" />
    <glyph glyph-name="germandbls" unicode="&#xdf;" horiz-adv-x="550" 
d="M0 198q0 210 13 339q8 74 42.5 123.5t86 73.5t108.5 24q55 0 104.5 -21.5t80 -62t30.5 -93.5q0 -79 -71 -170q39 -21 70 -62.5t45 -100.5q1 -6 1 -18q0 -46 -27 -92.5t-88.5 -84t-159.5 -53.5v147q46 10 78.5 42t32.5 65q0 29 -27 49.5t-84 26.5v122q33 35 54 69.5
t21 59.5q0 37 -47 45q-43 0 -63.5 -35t-27.5 -109t-7 -215q0 -103 1 -164l1 -257h-159q-8 174 -8 352z" />
    <glyph glyph-name="t" unicode="t" horiz-adv-x="529" 
d="M147 529h-146l-11 156l332 16l187 6l-13 -179l-174 1v-528h-182z" />
    <glyph glyph-name="u" unicode="u" horiz-adv-x="585" 
d="M98 47.5q-58 47.5 -78.5 123.5t-20.5 180q0 53 6 153q5 82 5 136h188q2 0 1 -19t-3 -45q-9 -108 -9 -185q0 -219 74 -219q58 0 80 100.5t22 240.5q0 80 -5 151h170q1 -12 4 -55t3 -98q0 -203 -58 -358t-216 -153q-105 0 -163 47.5z" />
    <glyph glyph-name="uacute" unicode="&#xfa;" horiz-adv-x="585" 
d="M267 862h113l-56 -115h-92zM98 47.5q-58 47.5 -78.5 123.5t-20.5 180q0 53 6 153q5 82 5 136h188q2 0 1 -19t-3 -45q-9 -108 -9 -185q0 -219 74 -219q58 0 80 100.5t22 240.5q0 80 -5 151h170q1 -12 4 -55t3 -98q0 -203 -58 -358t-216 -153q-105 0 -163 47.5z" />
    <glyph glyph-name="ucircumflex" unicode="&#xfb;" horiz-adv-x="585" 
d="M212 872h108l68 -132h-84l-38 100l-35 -100h-84zM98 47.5q-58 47.5 -78.5 123.5t-20.5 180q0 53 6 153q5 82 5 136h188q2 0 1 -19t-3 -45q-9 -108 -9 -185q0 -219 74 -219q58 0 80 100.5t22 240.5q0 80 -5 151h170q1 -12 4 -55t3 -98q0 -203 -58 -358t-216 -153
q-105 0 -163 47.5z" />
    <glyph glyph-name="udieresis" unicode="&#xfc;" horiz-adv-x="585" 
d="M318.5 751.5q-14.5 14.5 -14.5 34.5t14.5 34.5t34.5 14.5t34.5 -14.5t14.5 -34.5t-14.5 -34.5t-34.5 -14.5t-34.5 14.5zM148.5 820.5q14.5 14.5 34.5 14.5t34.5 -14.5t14.5 -34.5t-14.5 -34.5t-34.5 -14.5t-34.5 14.5t-14.5 34.5t14.5 34.5zM98 47.5
q-58 47.5 -78.5 123.5t-20.5 180q0 53 6 153q5 82 5 136h188q2 0 1 -19t-3 -45q-9 -108 -9 -185q0 -219 74 -219q58 0 80 100.5t22 240.5q0 80 -5 151h170q1 -12 4 -55t3 -98q0 -203 -58 -358t-216 -153q-105 0 -163 47.5z" />
    <glyph glyph-name="ugrave" unicode="&#xf9;" horiz-adv-x="585" 
d="M172 855h113l35 -115h-92zM98 47.5q-58 47.5 -78.5 123.5t-20.5 180q0 53 6 153q5 82 5 136h188q2 0 1 -19t-3 -45q-9 -108 -9 -185q0 -219 74 -219q58 0 80 100.5t22 240.5q0 80 -5 151h170q1 -12 4 -55t3 -98q0 -203 -58 -358t-216 -153q-105 0 -163 47.5z" />
    <glyph glyph-name="v" unicode="v" horiz-adv-x="638" 
d="M-1 677h204l96 -538l106 529h182l-147 -668h-300z" />
    <glyph glyph-name="w" unicode="w" horiz-adv-x="862" 
d="M0 684h192l45 -397l93 285h158l92 -295l61 408h181l-123 -685h-205l-89 282l-86 -282h-207z" />
    <glyph glyph-name="x" unicode="x" horiz-adv-x="648" 
d="M172 357l-163 343l200 -4l88 -192l103 194h184l-166 -334l180 -332h-200l-97 183l-104 -215h-197z" />
    <glyph glyph-name="y" unicode="y" horiz-adv-x="565" 
d="M214 -105q-52 0 -96.5 17.5t-72.5 38t-37 30.5l42 165q85 -62 146 -62q97 0 137 148q-61 -25 -122 -25q-32 0 -61 7q-75 20 -113 79t-38 152q0 108 50 255l178 -4q-23 -57 -39.5 -118t-16.5 -107q0 -93 72 -93q42 0 108 33q2 36 2 103q0 93 -5 173l158 15
q12 -106 12 -229q0 -174 -32 -319t-113 -207q-76 -52 -159 -52z" />
    <glyph glyph-name="yacute" unicode="&#xfd;" horiz-adv-x="565" 
d="M282 889h113l-56 -115h-92zM214 -105q-52 0 -96.5 17.5t-72.5 38t-37 30.5l42 165q85 -62 146 -62q97 0 137 148q-61 -25 -122 -25q-32 0 -61 7q-75 20 -113 79t-38 152q0 108 50 255l178 -4q-23 -57 -39.5 -118t-16.5 -107q0 -93 72 -93q42 0 108 33q2 36 2 103
q0 93 -5 173l158 15q12 -106 12 -229q0 -174 -32 -319t-113 -207q-76 -52 -159 -52z" />
    <glyph glyph-name="ydieresis" unicode="&#xff;" horiz-adv-x="565" 
d="M333.5 778.5q-14.5 14.5 -14.5 34.5t14.5 34.5t34.5 14.5t34.5 -14.5t14.5 -34.5t-14.5 -34.5t-34.5 -14.5t-34.5 14.5zM163.5 847.5q14.5 14.5 34.5 14.5t34.5 -14.5t14.5 -34.5t-14.5 -34.5t-34.5 -14.5t-34.5 14.5t-14.5 34.5t14.5 34.5zM214 -105q-52 0 -96.5 17.5
t-72.5 38t-37 30.5l42 165q85 -62 146 -62q97 0 137 148q-61 -25 -122 -25q-32 0 -61 7q-75 20 -113 79t-38 152q0 108 50 255l178 -4q-23 -57 -39.5 -118t-16.5 -107q0 -93 72 -93q42 0 108 33q2 36 2 103q0 93 -5 173l158 15q12 -106 12 -229q0 -174 -32 -319t-113 -207
q-76 -52 -159 -52z" />
    <glyph glyph-name="z" unicode="z" horiz-adv-x="581" 
d="M2 173l309 364h-271l-11 164l502 11v-175q-233 -271 -307 -364h287l-9 -174h-500v174z" />
    <glyph glyph-name="zcaron" unicode="&#x17e;" horiz-adv-x="581" 
d="M171 914h84l38 -100l35 100h84l-65 -132h-108zM2 173l309 364h-271l-11 164l502 11v-175q-233 -271 -307 -364h287l-9 -174h-500v174z" />
    <glyph glyph-name="zero" unicode="0" horiz-adv-x="591" 
d="M-10 373q0 89 32 157t78 106q41 35 88 53.5t95 18.5q65 0 122 -33t94.5 -98t46.5 -158q3 -27 3 -52q0 -106 -41.5 -193.5t-108 -137.5t-139.5 -50q-69 0 -129.5 47.5t-102.5 143.5q-38 106 -38 196zM218.5 219q24.5 -21 51.5 -21q22 0 39 10q27 17 45.5 54.5t18.5 90.5
q0 48 -15 83.5t-39 53.5t-52 18q-30 0 -57 -21q-19 -15 -32 -44.5t-13 -70.5q0 -33 12 -78q17 -54 41.5 -75z" />
    <glyph glyph-name="one" unicode="1" horiz-adv-x="363" 
d="M142 542l-106 -56l-66 143q159 84 174 84h169v-713h-179z" />
    <glyph glyph-name="two" unicode="2" horiz-adv-x="511" 
d="M171.5 278q66.5 67 102 129t35.5 103q0 25 -13.5 39t-39.5 14q-66 0 -196 -87l-60 157q143 85 262 85q96 0 152.5 -53.5t56.5 -141.5q0 -81 -51.5 -175.5t-156.5 -188.5h204v-162l-451 -3v162q89 55 155.5 122z" />
    <glyph glyph-name="three" unicode="3" horiz-adv-x="479" 
d="M207.5 174q72.5 19 72.5 61q0 66 -94 66q-50 0 -108 -16v128q80 28 133 66t49 79q-4 35 -39 35q-24 0 -57 -13.5t-75 -35.5l-35 -17l-54 144q58 25 125.5 42t126.5 17q131 0 171 -91q21 -48 21 -90q0 -92 -103 -149q41 -7 74.5 -32.5t52.5 -63t19 -79.5q0 -63 -46.5 -118
t-149.5 -88.5t-264 -29.5l3 168q105 -2 177.5 17z" />
    <glyph glyph-name="four" unicode="4" horiz-adv-x="510" 
d="M215 196q-26 0 -56 6q-82 18 -120.5 87t-38.5 173q0 111 41 242l149 2q-13 -49 -21.5 -106t-8.5 -106q0 -147 83 -147q24 0 51 11l4 342h171l1 -699h-181l3 206q-36 -11 -77 -11z" />
    <glyph glyph-name="five" unicode="5" horiz-adv-x="497" 
d="M31 167l49 -1q196 0 196 93q0 42 -25.5 57t-77.5 15q-33 0 -72 -3q-60 -4 -99 -4l10 382h402v-141h-233v-97l27 1q105 0 177 -48.5t72 -168.5q0 -150 -125.5 -203t-271.5 -53q-34 0 -60 2l5 170q15 0 26 -1z" />
    <glyph glyph-name="six" unicode="6" horiz-adv-x="505" 
d="M91 54q-45 45 -68 111.5t-23 141.5q0 93 32.5 182.5t92 150.5t135.5 72q16 2 24 2q58 0 101 -36.5t58 -104.5l-118 -51q0 18 -12.5 29.5t-31.5 11.5q-23 0 -48 -17t-45.5 -54.5t-28.5 -94.5q67 34 125 34q56 0 97 -30t62.5 -79.5t21.5 -104.5q0 -60 -24.5 -113t-75 -86
t-123.5 -33q-82 0 -151 69zM163 226q0 -42 24.5 -66.5t57.5 -24.5q34 0 58 25t24 72q-1 39 -23 59t-53 20t-56 -17.5t-30 -46.5q-2 -14 -2 -21z" />
    <glyph glyph-name="seven" unicode="7" horiz-adv-x="430" 
d="M173 571h-173v142h390l-132 -708l-193 -5z" />
    <glyph glyph-name="eight" unicode="8" horiz-adv-x="541" 
d="M216 -15q-64 0 -119 30.5t-85 107.5q-12 44 -12 79q0 61 27 104t64 69q-31 30 -48 74q-11 39 -11 69q0 63 34.5 107.5t84.5 66.5q60 26 120 26q54 0 99 -20t72 -59t27 -94q0 -85 -67 -145q47 -25 73.5 -69.5t25.5 -103.5q0 -80 -54.5 -138.5t-132.5 -88.5
q-46 -15 -98 -15zM197.5 164.5q16.5 -11.5 36.5 -11.5q12 0 22 3q21 7 38.5 25t22.5 46q1 4 1 11q0 29 -19.5 46.5t-47.5 17.5q-19 0 -34 -7q-18 -7 -31 -24.5t-13 -44.5q0 -5 2 -21q6 -29 22.5 -40.5zM209 464.5q15 -9.5 32 -9.5q10 0 17 2q21 7 36 25.5t15 47.5
q0 24 -16.5 38.5t-40.5 14.5q-12 0 -27 -5q-16 -7 -27 -22t-11 -38q0 -5 2 -19q5 -25 20 -34.5z" />
    <glyph glyph-name="nine" unicode="9" horiz-adv-x="530" 
d="M188.5 173q20.5 -14 44.5 -14q37 0 64.5 30.5t27.5 86.5q0 16 -3 35q-60 -27 -122 -27q-76 0 -130.5 42t-66.5 124q-3 18 -3 35q0 67 40 123t98 91q56 30 108 30q71 0 122 -54.5t77 -142t26 -185.5q0 -95 -25 -177.5t-75 -133t-121 -50.5q-99 0 -223 103l132 123
q9 -25 29.5 -39zM170.5 442.5q18.5 -17.5 44.5 -17.5q21 0 40 12q13 8 21.5 22.5t8.5 33.5q0 17 -9 39q-9 19 -24.5 29.5t-33.5 10.5q-28 0 -47.5 -22t-18.5 -60q0 -30 18.5 -47.5z" />
    <glyph glyph-name="period" unicode="." horiz-adv-x="167" 
d="M18.5 -13q-18.5 19 -18.5 46q0 26 18.5 45t45.5 19q26 0 44.5 -19t18.5 -45q0 -27 -18.5 -46t-44.5 -19q-27 0 -45.5 19z" />
    <glyph glyph-name="comma" unicode="," horiz-adv-x="145" 
d="M6 -57l34 39q-17 0 -28.5 16.5t-11.5 39.5q0 24 17.5 41.5t41.5 17.5t41.5 -17.5t17.5 -41.5q0 -43 -26 -71t-64 -39z" />
    <glyph glyph-name="colon" unicode=":" horiz-adv-x="249" 
d="M65.5 472q-18.5 19 -18.5 46q0 26 18.5 45t45.5 19q26 0 44.5 -19t18.5 -45q0 -27 -18.5 -46t-44.5 -19q-27 0 -45.5 19zM65.5 274q18.5 19 45.5 19q26 0 44.5 -19t18.5 -45q0 -27 -18.5 -46t-44.5 -19q-27 0 -45.5 19t-18.5 46q0 26 18.5 45z" />
    <glyph glyph-name="semicolon" unicode=";" horiz-adv-x="244" 
d="M62 151l34 39q-17 0 -28.5 16.5t-11.5 39.5q0 24 17.5 41.5t41.5 17.5t41.5 -17.5t17.5 -41.5q0 -43 -26 -71t-64 -39zM65.5 563q18.5 19 45.5 19q26 0 44.5 -19t18.5 -45q0 -27 -18.5 -46t-44.5 -19q-27 0 -45.5 19t-18.5 46q0 26 18.5 45z" />
    <glyph glyph-name="ellipsis" unicode="&#x2026;" horiz-adv-x="167" 
d="M18.5 -13q-18.5 19 -18.5 46q0 26 18.5 45t45.5 19q26 0 44.5 -19t18.5 -45q0 -27 -18.5 -46t-44.5 -19q-27 0 -45.5 19z" />
    <glyph glyph-name="exclam" unicode="!" horiz-adv-x="277" 
d="M42 811l199 30l-27 -707h-144zM59.5 16.5q31.5 31.5 75.5 31.5t75.5 -31.5t31.5 -75.5t-31.5 -75.5t-75.5 -31.5t-75.5 31.5t-31.5 75.5t31.5 75.5z" />
    <glyph glyph-name="exclamdown" unicode="&#xa1;" horiz-adv-x="277" 
d="M42 -136l28 677h144l27 -707zM59.5 809.5q31.5 31.5 75.5 31.5t75.5 -31.5t31.5 -75.5t-31.5 -75.5t-75.5 -31.5t-75.5 31.5t-31.5 75.5t31.5 75.5z" />
    <glyph glyph-name="question" unicode="?" horiz-adv-x="570" 
d="M135 226q0 61 22.5 105.5t76.5 94.5q50 46 73 85.5t23 70.5q0 34 -23 53t-56 19q-37 0 -68.5 -25t-41.5 -72l-141 47q13 66 52.5 112t95 69.5t116.5 23.5q67 0 125.5 -28t94.5 -84.5t36 -135.5q0 -42 -13.5 -73t-33.5 -52t-54 -49q-33 -27 -53 -48t-34 -52.5t-14 -73.5
q0 -10 2 -34h-182q-3 26 -3 47zM152.5 90q30.5 30 73.5 30t73 -30.5t30 -73.5t-30 -73t-73 -30t-73.5 30t-30.5 73q0 44 30.5 74z" />
    <glyph glyph-name="questiondown" unicode="&#xbf;" horiz-adv-x="570" 
d="M467.5 -39q-39.5 -46 -95 -69.5t-116.5 -23.5q-67 0 -125.5 28t-94.5 84.5t-36 135.5q0 42 14 73.5t34 52.5t53 48q34 28 54 49t33.5 52t13.5 73q0 10 -2 34h182q3 -25 3 -47q0 -61 -22.5 -105.5t-76.5 -94.5q-50 -46 -73 -85.5t-23 -70.5q0 -34 23 -53t56 -19
q37 0 68.5 25t41.5 72l141 -47q-13 -66 -52.5 -112zM221 734q30 30 73 30t73.5 -30t30.5 -73t-30 -73.5t-74 -30.5q-43 0 -73 30.5t-30 73.5t30 73z" />
    <glyph glyph-name="periodcentered" unicode="&#xb7;" horiz-adv-x="261" 
d="M52 300q-26 26 -26 63q0 36 26 62t63 26q36 0 62 -26t26 -62q0 -37 -26 -63t-62 -26q-37 0 -63 26z" />
    <glyph glyph-name="bullet" unicode="&#x2022;" horiz-adv-x="367" 
d="M69.5 250.5q-32.5 18.5 -51 50.5t-18.5 70t18.5 70.5t51 51t70.5 18.5t70 -18.5t50.5 -51t18.5 -70.5t-18.5 -70t-50.5 -50.5t-70 -18.5t-70.5 18.5z" />
    <glyph glyph-name="asterisk" unicode="*" horiz-adv-x="396" 
d="M140 637l-45 -43l-61 43l52 48h-57l-14 73h77l-53 56l53 51l48 -52v56l73 14v-76l55 53l50 -53l-51 -49h71v-73h-78l44 -45l-44 -61l-47 51v-70h-73v77z" />
    <glyph glyph-name="numbersign" unicode="#" 
d="M60 216h-63v131h87l14 80h-61v131h84l23 129h125l-23 -129h100l24 129h125l-23 -129h63v-131h-87l-14 -80h61v-131h-85l-20 -120h-126l22 120h-102l-20 -120h-126zM309 347l14 80h-100l-15 -80h101z" />
    <glyph glyph-name="slash" unicode="/" horiz-adv-x="371" 
d="M175 869h139l-192 -1040h-139z" />
    <glyph glyph-name="backslash" unicode="\" horiz-adv-x="356" 
d="M-4 872h139l194 -1042h-139z" />
    <glyph glyph-name="hyphen" unicode="-" horiz-adv-x="415" 
d="M16 446h329v-142h-329v142z" />
    <glyph glyph-name="endash" unicode="&#x2013;" 
d="M16 446h535v-142h-535v142z" />
    <glyph glyph-name="emdash" unicode="&#x2014;" 
d="M-35 446h670v-142h-670v142z" />
    <glyph glyph-name="underscore" unicode="_" 
d="M76 0h443v-98h-443v98z" />
    <glyph glyph-name="parenleft" unicode="(" horiz-adv-x="303" 
d="M7 278q0 180 65 351.5t158 297.5l127 5q-245 -303 -245 -625q0 -266 168 -522q7 -11 11.5 -18.5t2.5 -7.5h-118q-169 241 -169 519z" />
    <glyph glyph-name="parenright" unicode=")" horiz-adv-x="263" 
d="M-58.5 -233.5q4.5 7.5 11.5 18.5q168 256 168 522q0 322 -245 625l127 -5q93 -126 158 -297.5t65 -351.5q0 -278 -169 -519h-118q-2 0 2.5 7.5z" />
    <glyph glyph-name="braceleft" unicode="{" horiz-adv-x="334" 
d="M201.5 -178q-53.5 22 -71 59.5t-17.5 96.5q0 18 2 56q2 44 2 66q0 79 -24.5 146t-92.5 124q59 64 87 128t34.5 116.5t7.5 123.5q0 77 11 115.5t60.5 62t158.5 23.5v-93q-32 2 -42 2q-41 0 -61 -8.5t-26 -25.5t-6 -49l1 -48q0 -76 -21 -159.5t-86 -187.5q45 -54 65.5 -112
t24.5 -104.5t4 -116.5q0 -53 6 -82.5t28.5 -47t70.5 -17.5q18 0 42 3v-93q-104 0 -157.5 22z" />
    <glyph glyph-name="braceright" unicode="}" 
d="M-27 -110q52 0 74.5 20.5t27 51.5t4.5 97q0 59 5.5 106t26 100.5t62.5 104.5q-65 105 -86 187.5t-21 159.5v48q0 32 -6 48.5t-25.5 25t-61.5 8.5q-26 0 -41 -1v93q109 0 158.5 -23.5t60.5 -62t11 -115.5q1 -71 7.5 -123.5t34.5 -116.5t87 -128q-69 -57 -93 -123.5
t-24 -146.5q0 -23 2 -65q2 -40 2 -58q0 -59 -17.5 -96.5t-71 -59t-157.5 -21.5v93q22 -3 41 -3z" />
    <glyph glyph-name="bracketleft" unicode="[" horiz-adv-x="270" 
d="M25 858h242v-100h-126v-770h125v-100h-241v970zM25 -112h94h-94z" />
    <glyph glyph-name="bracketright" unicode="]" horiz-adv-x="249" 
d="M242 -114h-241v100h125v770h-126v100h242v-970z" />
    <glyph glyph-name="quotesinglbase" unicode="&#x201a;" horiz-adv-x="145" 
d="M6 -57l34 39q-17 0 -28.5 16.5t-11.5 39.5q0 24 17.5 41.5t41.5 17.5t41.5 -17.5t17.5 -41.5q0 -43 -26 -71t-64 -39z" />
    <glyph glyph-name="quotedblbase" unicode="&#x201e;" horiz-adv-x="145" 
d="M6 -57l34 39q-17 0 -28.5 16.5t-11.5 39.5q0 24 17.5 41.5t41.5 17.5t41.5 -17.5t17.5 -41.5q0 -43 -26 -71t-64 -39z" />
    <glyph glyph-name="quotedblleft" unicode="&#x201c;" horiz-adv-x="232" 
d="M69 801h55l-38 -151h-82zM157 801h55l-15 -151h-82z" />
    <glyph glyph-name="quotedblright" unicode="&#x201d;" horiz-adv-x="250" 
d="M130 801h82l-65 -151h-55zM19 801h82l-42 -151h-55z" />
    <glyph glyph-name="quoteleft" unicode="&#x2018;" horiz-adv-x="154" 
d="M69 801h55l-38 -151h-82z" />
    <glyph glyph-name="quoteright" unicode="&#x2019;" horiz-adv-x="128" 
d="M42 801h82l-65 -151h-55z" />
    <glyph glyph-name="guillemotleft" unicode="&#xab;" 
d="M291 216v142l209 73v-89l-153 -48l177 -63v-105zM35 351l209 73v-89l-153 -48l177 -63v-105l-233 90v142z" />
    <glyph glyph-name="guillemotright" unicode="&#xbb;" horiz-adv-x="550" 
d="M283 224l177 63l-153 48v89l209 -73v-142l-233 -90v105zM27 224l177 63l-153 48v89l209 -73v-142l-233 -90v105z" />
    <glyph glyph-name="guilsinglleft" unicode="&#x2039;" horiz-adv-x="257" 
d="M4 209v142l209 73v-89l-153 -48l177 -63v-105z" />
    <glyph glyph-name="guilsinglright" unicode="&#x203a;" horiz-adv-x="300" 
d="M20 224l177 63l-153 48v89l209 -73v-142l-233 -90v105z" />
    <glyph glyph-name="quotedbl" unicode="&#x22;" horiz-adv-x="170" 
d="M-17 801h65l13 -125l-61 -9zM135 801l4 -123l-56 -11l-13 134h65z" />
    <glyph glyph-name="quotesingle" unicode="'" horiz-adv-x="93" 
d="M-36 798h65l13 -125l-61 -9z" />
    <glyph glyph-name="at" unicode="@" horiz-adv-x="655" 
d="M279 31q-86 0 -157 44t-107 153q-15 63 -15 114q0 103 48.5 176t118.5 109q81 42 169 42q78 0 143.5 -34.5t102.5 -100.5t32 -157q-14 -117 -50 -172t-81 -55q-39 0 -74.5 35.5t-51.5 90.5q-45 -23 -88 -23q-34 0 -59 19t-35 65q-1 7 -1 21q0 62 36 86t88 24q34 0 67 -8
l2 32l76 -8q-12 -57 -12 -107q0 -55 12.5 -91t30.5 -36q14 0 27.5 26t22.5 78q2 22 2 31q0 59 -29 102.5t-76.5 66t-100.5 22.5q-56 0 -105 -25t-79.5 -76.5t-30.5 -125.5q0 -23 5 -58q18 -90 65 -132.5t101 -42.5q26 0 47 9.5t31 25.5l81 -91q-77 -29 -156 -29zM289 324
q28 0 66 21v48q-31 10 -58 10q-46 0 -46 -35q0 -44 38 -44z" />
    <glyph glyph-name="ampersand" unicode="&#x26;" 
d="M311 -9.5q-58 -26.5 -116 -26.5q-60 0 -111.5 25.5t-82 69.5t-30.5 98q0 58 39 119.5t121 117.5q-63 67 -63 142q0 47 25 86.5t67.5 62.5t94.5 23q47 0 87.5 -19.5t64.5 -54t24 -77.5q0 -52 -26.5 -89t-78.5 -77l105 -118l30 32q43 45 54 60l109 -103l-34 -29
q-59 -49 -74 -65l124 -120l-138 -74l-83 98q-50 -55 -108 -81.5zM161 242.5q-20 -30.5 -20 -57.5q0 -30 21.5 -49t54.5 -19q27 0 56.5 14t57.5 42l-109 129q-41 -29 -61 -59.5zM296 562q0 16 -14 29q-15 14 -33 14q-19 0 -32 -14t-13 -36q0 -35 37 -64q55 41 55 71z" />
    <glyph glyph-name="paragraph" unicode="&#xb6;" horiz-adv-x="747" 
d="M125.5 342.5q-58.5 40.5 -92 103.5t-33.5 129q0 85 58 151t178 90l199 30l-13 -905h-144l-24 359q-70 2 -128.5 42.5zM483 811l199 30l-19 -883l-184 -23z" />
    <glyph glyph-name="section" unicode="&#xa7;" horiz-adv-x="628" 
d="M100 -6.5q8 26.5 12 38.5q17 58 23 70q45 -19 98 -34t87 -15q42 0 42 25q0 28 -57 89q-9 -1 -28 -1q-76 0 -136.5 27t-94 71t-33.5 95q0 45 28.5 88t85.5 77q-80 66 -80 133q0 42 32.5 75.5t91 53t133.5 19.5q96 0 196 -31l-31 -139q-39 15 -80.5 25t-72.5 10
q-37 0 -53 -17q-11 -16 -11 -27q0 -23 30.5 -40t94.5 -41q82 -30 132 -58t69 -73q10 -24 10 -54q0 -46 -24.5 -87.5t-69.5 -66.5q35 -29 53 -64t18 -70q0 -46 -29 -85.5t-84.5 -63.5t-130.5 -24q-108 0 -236 51q7 17 15 43.5zM178 376q0 -35 41 -56.5t91 -21.5q37 0 61.5 13
t24.5 38q0 15 -8 30q-2 5 -24 22.5t-52 32t-57 14.5q-43 0 -68 -41q-9 -16 -9 -31z" />
    <glyph glyph-name="copyright" unicode="&#xa9;" horiz-adv-x="656" 
d="M250 35q-73 0 -136 42.5t-98 150.5q-14 57 -14 111q0 100 45.5 171t110.5 106q75 41 159 41q74 0 135.5 -33.5t96.5 -97.5t30 -153q-8 -124 -70 -204.5t-146 -112.5q-52 -21 -113 -21zM148 115.5q51 -39.5 110 -39.5q31 0 57 8q63 24 113 88.5t62 167.5q3 23 3 43
q0 68 -27 118.5t-71.5 77.5t-97.5 27q-51 0 -96 -23q-54 -28 -92 -92t-38 -158q0 -33 6 -72q20 -106 71 -145.5zM148 343q0 43 19 77.5t51 53.5t70 19q53 0 100 -37l-47 -56q-18 21 -42 21q-28 0 -48.5 -26t-17.5 -59q8 -56 51 -56q14 0 27.5 5t20.5 11l48 -60
q-49 -36 -102 -36q-42 0 -75 22.5t-46 61.5q-9 32 -9 59z" />
    <glyph glyph-name="registered" unicode="&#xae;" horiz-adv-x="492" 
d="M0 755q0 59 27.5 105t67.5 72q35 24 75.5 36t81.5 12q55 0 104 -22t81.5 -66t40.5 -106q2 -12 2 -35q0 -72 -35.5 -130t-92.5 -91.5t-120 -33.5q-59 0 -111 31.5t-88 96.5q-33 69 -33 131zM156.5 565.5q40.5 -26.5 84.5 -26.5q33 0 62 12q47 24 77 75t25 126
q-2 55 -26.5 95t-63 60.5t-81.5 20.5q-51 0 -91 -26q-30 -20 -50.5 -57t-20.5 -88q0 -46 18 -97q26 -68 66.5 -94.5zM162 865q19 2 41 2q74 0 95 -23q17 -19 17 -40q0 -37 -53 -95l75 -35l-33 -54l-81 50v-65h-65zM241.5 761q7.5 15 7.5 28q0 24 -26 32v-88q11 13 18.5 28z
" />
    <glyph glyph-name="trademark" unicode="&#x2122;" horiz-adv-x="1216" 
d="M150 529h-146l-11 156l519 22l-13 -179l-174 1v-528h-182zM1166 -1l-168 2l5 361l-85 -267h-110l-81 227l-6 -320l-162 -2l3 689h181l121 -367l120 353l176 15z" />
    <glyph glyph-name="degree" unicode="&#xb0;" horiz-adv-x="261" 
d="M-13 743q0 27 13.5 48t33.5 33q35 22 78 22q47 0 79.5 -27.5t32.5 -77.5q0 -33 -17.5 -59.5t-45.5 -42t-59 -15.5q-29 0 -55 14.5t-44 44.5q-16 33 -16 60zM107 689q9 0 16 3q11 5 19 16.5t8 28.5q0 22 -13.5 34.5t-31.5 12.5q-12 0 -24 -6q-8 -5 -13.5 -14t-5.5 -21
q0 -13 5 -24q12 -30 40 -30z" />
    <glyph glyph-name="bar" unicode="|" horiz-adv-x="207" 
d="M54 814l83 17v-947h-97z" />
    <glyph glyph-name="brokenbar" unicode="&#xa6;" horiz-adv-x="207" 
d="M54 704l83 5v-275h-97zM54 281l83 5v-275h-97z" />
    <glyph glyph-name="dagger" unicode="&#x2020;" horiz-adv-x="320" 
d="M109 742h-82v72h82v53h78v-53h86v-72h-86v-165h-78v165z" />
    <glyph glyph-name="daggerdbl" unicode="&#x2021;" horiz-adv-x="293" 
d="M109 628h-82v72h82v42h-82v72h82v53h78v-53h86v-72h-86v-42h86v-72h-86v-51h-78v51z" />
    <glyph glyph-name="cent" unicode="&#xa2;" 
d="M93.5 104q-64.5 48 -91.5 124q-20 68 -20 126q0 84 34.5 152t93.5 112t132 57v91h91v-87q105 -11 197 -79q-61 -73 -108 -121q-39 43 -89 46v-302q41 10 71 31l110 -129q-89 -61 -181 -75v-108h-91v105q-84 9 -148.5 57zM242 229v266q-34 -26 -52.5 -68t-14.5 -87
q12 -87 67 -111z" />
    <glyph glyph-name="currency" unicode="&#xa4;" 
d="M14 98l53 53q-15 25 -17 29q-36 80 -36 151q0 83 48 146l-48 48l67 66l50 -50q73 46 159 46q92 0 160 -53l57 57l66 -66l-63 -64q22 -43 28 -95q2 -14 2 -40q0 -85 -41 -153l74 -75l-66 -66l-69 68q-36 -32 -80 -49t-90 -17q-76 0 -137 48l-50 -50zM279 197q20 0 36 7
q25 13 42.5 41t17.5 69q0 56 -29.5 88t-70.5 32q-29 0 -54 -16q-18 -12 -30 -34.5t-12 -53.5q0 -28 11 -60q29 -73 89 -73z" />
    <glyph glyph-name="dollar" unicode="$" 
d="M112 50q-59 13 -97 38q21 29 54 88q19 33 32 54q18 -5 58.5 -13.5t77.5 -12.5v92l-29 13q-61 28 -98.5 49.5t-64.5 53.5t-27 75q0 19 6 40q18 54 73 99t140 50v35h76v-38q87 -13 188 -64l-61 -133q-70 32 -127 43v-105q72 -34 114 -57.5t75 -58.5t33 -77q0 -47 -45 -100
q-27 -31 -73.5 -50.5t-103.5 -27.5v-74h-76v68q-66 0 -125 13zM212 488q0 -15 25 -34v64l-9 -5q-16 -13 -16 -25zM330 221q0 7 -6 17q-4 8 -11 14v-48q17 5 17 17z" />
    <glyph glyph-name="Euro" unicode="&#x20ac;" horiz-adv-x="479" 
d="M306 -5q-84 0 -160.5 43t-125.5 148q-12 34 -16 50h-36v78h20q-2 20 -2 57h-18v78h30q16 61 51 107t74 72q45 30 104.5 46.5t117.5 16.5q31 0 54 -4l-10 -162q-21 12 -52 12q-33 0 -65.5 -14t-54 -35t-21.5 -39h77v-78h-87q-2 -27 5 -57h82v-78h-67q12 -46 45 -65.5
t73 -19.5q22 0 40.5 5t24.5 11l18 -158q-44 -14 -101 -14z" />
    <glyph glyph-name="sterling" unicode="&#xa3;" 
d="M17 61v88h-17q50 0 85.5 42.5t56.5 134.5h-25v93h42l8 73q7 84 52.5 135t113.5 71t146 16v-150q-16 3 -36 3q-43 0 -75 -17t-32 -62q0 -10 1 -16q3 -16 3 -53h64v-93h-73q-12 -82 -37 -167l211 2l21 -123z" />
    <glyph glyph-name="yen" unicode="&#xa5;" horiz-adv-x="540" 
d="M129 64h-60v78h60v25h-60v78h60v30q-59 41 -89.5 126.5t-30.5 186.5q0 42 4 74h146q9 -130 26.5 -220t40.5 -90q41 0 92 310h144q-5 -128 -41.5 -238t-106.5 -154v-25h75v-78h-75v-25h75v-78h-75v-63h-185v63z" />
    <glyph glyph-name="plus" unicode="+" 
d="M221 291h-146l-17 112h163v153l129 25v-178h156l-19 -112h-137v-170l-129 -18v188z" />
    <glyph glyph-name="multiply" unicode="&#xd7;" 
d="M74 240l133 133l-103 103l67 91l115 -115l108 108l109 -73l-126 -126l111 -110l-93 -66l-97 97l-120 -120z" />
    <glyph glyph-name="divide" unicode="&#xf7;" 
d="M58 403h448l-19 -112h-412zM239 578.5q20 19.5 48 19.5q29 0 48.5 -19.5t19.5 -48.5q0 -28 -19.5 -48t-48.5 -20q-28 0 -48 20t-20 48q0 29 20 48.5zM241 226.5q20 19.5 48 19.5q29 0 48.5 -19.5t19.5 -48.5q0 -28 -19.5 -48t-48.5 -20q-28 0 -48 20t-20 48q0 29 20 48.5
z" />
    <glyph glyph-name="equal" unicode="=" 
d="M59 532h448l-19 -112h-412zM514 331l-19 -112h-412l-17 112h448z" />
    <glyph glyph-name="greater" unicode="&#x3e;" 
d="M98 199l290 130l-251 114v146l342 -194v-157l-381 -148v109z" />
    <glyph glyph-name="less" unicode="&#x3c;" 
d="M98 238v157l342 194v-146l-251 -114l290 -130v-109z" />
    <glyph glyph-name="plusminus" unicode="&#xb1;" 
d="M221 388h-146l-17 112h163v153l129 25v-178h156l-19 -112h-137v-170l-129 -18v188zM108 154h374l-20 -117h-354v117z" />
    <glyph glyph-name="asciitilde" unicode="~" 
d="M191 430q26 0 48.5 -8t57.5 -24q33 -16 56 -24t48 -8q54 0 114 49v-121q-48 -35 -98 -35q-26 0 -51.5 7t-60.5 21q-38 14 -61.5 21t-48.5 7q-59 0 -113 -51v123q56 43 109 43z" />
    <glyph glyph-name="logicalnot" unicode="&#xac;" 
d="M355 283l-287 -7v127l417 10v-267h-130v137z" />
    <glyph glyph-name="asciicircum" unicode="^" horiz-adv-x="392" 
d="M48 615l84 235l97 -3l98 -232l-91 2l-55 159l-53 -163z" />
    <glyph glyph-name="partialdiff" unicode="&#x2202;" horiz-adv-x="507" 
d="M288.5 152.5q28.5 31.5 28.5 75.5q0 43 -28 68t-70 25t-70 -25t-28 -68q0 -44 28.5 -75.5t69.5 -31.5t69.5 31.5zM213 712q76 -7 135.5 -66.5t92 -149.5t32.5 -185q0 -77 -22.5 -144.5t-68.5 -112.5q-69 -69 -151 -69q-73 0 -123.5 33t-75 86t-24.5 113q0 55 21.5 104.5
t62.5 79.5t97 30q58 0 125 -34q-14 94 -47 133t-73 39q-25 0 -46 -12q55 156 65 155z" />
    <glyph glyph-name="percent" unicode="%" horiz-adv-x="718" 
d="M401 892h139l-233 -971h-139zM-23 726q0 40 20 70t48 47q53 33 114 33q43 0 80.5 -17.5t60.5 -52.5t23 -83t-25.5 -87t-67 -61.5t-86.5 -22.5q-43 0 -80.5 21t-63.5 65q-23 46 -23 88zM152 647q12 0 23 4q16 8 27.5 25t11.5 42q0 32 -19 50t-45 18q-21 0 -37 -10
q-12 -7 -20 -19.5t-8 -30.5q0 -14 8 -35q18 -44 59 -44zM394 64q0 40 20 70t48 47q53 33 114 33q43 0 80.5 -17.5t60.5 -52.5t23 -83t-25.5 -87t-67 -61.5t-86.5 -22.5q-43 0 -80.5 21t-63.5 65q-23 46 -23 88zM569 -15q12 0 23 4q16 8 27.5 25t11.5 42q0 32 -19 50t-45 18
q-21 0 -37 -10q-12 -7 -20 -19.5t-8 -30.5q0 -14 8 -35q18 -44 59 -44z" />
    <glyph glyph-name="perthousand" unicode="&#x2030;" horiz-adv-x="1160" 
d="M401 892h139l-233 -971h-139zM-23 726q0 40 20 70t48 47q53 33 114 33q43 0 80.5 -17.5t60.5 -52.5t23 -83t-25.5 -87t-67 -61.5t-86.5 -22.5q-43 0 -80.5 21t-63.5 65q-23 46 -23 88zM152 647q12 0 23 4q16 8 27.5 25t11.5 42q0 32 -19 50t-45 18q-21 0 -37 -10
q-12 -7 -20 -19.5t-8 -30.5q0 -14 8 -35q18 -44 59 -44zM394 64q0 40 20 70t48 47q53 33 114 33q43 0 80.5 -17.5t60.5 -52.5t23 -83t-25.5 -87t-67 -61.5t-86.5 -22.5q-43 0 -80.5 21t-63.5 65q-23 46 -23 88zM569 -15q12 0 23 4q16 8 27.5 25t11.5 42q0 32 -19 50t-45 18
q-21 0 -37 -10q-12 -7 -20 -19.5t-8 -30.5q0 -14 8 -35q18 -44 59 -44zM774 82q0 40 20 70t48 47q53 33 114 33q43 0 80.5 -17.5t60.5 -52.5t23 -83t-25.5 -87t-67 -61.5t-86.5 -22.5q-43 0 -80.5 21t-63.5 65q-23 46 -23 88zM949 3q12 0 23 4q16 8 27.5 25t11.5 42
q0 32 -19 50t-45 18q-21 0 -37 -10q-12 -7 -20 -19.5t-8 -30.5q0 -14 8 -35q18 -44 59 -44z" />
    <glyph glyph-name="uni0328" unicode="&#x328;" horiz-adv-x="0" 
d="M292 -257.5q-52 29.5 -52 86.5q0 37 18 69t42 52t36 20h79q-38 -27 -64.5 -56.5t-26.5 -54.5q-3 -39 22 -57t66 -18q26 0 57 7l-51 -81q-74 3 -126 32.5z" />
    <glyph glyph-name="dieresis" unicode="&#xa8;" 
d="M333.5 631.5q-14.5 14.5 -14.5 34.5t14.5 34.5t34.5 14.5t34.5 -14.5t14.5 -34.5t-14.5 -34.5t-34.5 -14.5t-34.5 14.5zM163.5 700.5q14.5 14.5 34.5 14.5t34.5 -14.5t14.5 -34.5t-14.5 -34.5t-34.5 -14.5t-34.5 14.5t-14.5 34.5t14.5 34.5z" />
    <glyph glyph-name="grave" unicode="`" 
d="M188 749h113l35 -115h-92z" />
    <glyph glyph-name="acute" unicode="&#xb4;" 
d="M263 750h113l-56 -115h-92z" />
    <glyph glyph-name="circumflex" unicode="&#x2c6;" 
d="M240 751h108l68 -132h-84l-38 100l-35 -100h-84z" />
    <glyph glyph-name="tilde" unicode="&#x2dc;" 
d="M243 732q14 0 26 -6t28 -17q15 -11 27 -16.5t25 -5.5q28 0 58 34v-85q-23 -24 -50 -24q-12 0 -23.5 4.5t-31.5 14.5q-18 9 -30.5 14t-25.5 5q-31 0 -58 -36v87q28 31 55 31z" />
    <glyph glyph-name="macron" unicode="&#xaf;" 
d="M163 691h237v-73h-237v73z" />
    <glyph glyph-name="cedilla" unicode="&#xb8;" 
d="M308 -172q31 11 39 32q0 14 -33.5 20.5t-82.5 7.5l43 118h95l-48 -69q43 2 72.5 -15t29.5 -56q0 -57 -56 -88.5t-136 -38.5l8 77q38 1 69 12z" />
  </font>
</defs>
</svg>
